<?xml version="1.0" encoding="iso-8859-1"?>
<!-- Generator: Adobe Illustrator 19.0.0, SVG Export Plug-In . SVG Version: 6.00 Build 0)  -->
<svg version="1.1" id="Layer_1" xmlns="http://www.w3.org/2000/svg" xmlns:xlink="http://www.w3.org/1999/xlink" x="0px" y="0px"
	 viewBox="0 0 497.304 497.304" style="enable-background:new 0 0 497.304 497.304;" xml:space="preserve">
<g>
	<g>
		<path d="M248.644,6.616c-70.592,0-128,57.408-128,128c0,2.731,0.128,5.44,0.32,8.128c-0.213,0.811-0.32,1.664-0.32,2.539v128
			c0,5.909,4.779,10.688,10.667,10.688s10.667-4.779,10.667-10.667V148.632c0.448-1.365,0.619-2.837,0.491-4.309
			c-0.277-3.2-0.491-6.421-0.491-9.707c0-58.816,47.851-106.667,106.667-106.667S355.311,75.8,355.311,134.616v138.667
			c0,5.888,4.779,10.667,10.667,10.667c5.888,0,10.667-4.757,10.667-10.667V134.616C376.644,64.024,319.236,6.616,248.644,6.616z"/>
	</g>
</g>
<g>
	<g>
		<circle cx="248.644" cy="134.616" r="21.333"/>
	</g>
</g>
<g>
	<g>
		<path d="M248.644,49.283c-47.061,0-85.333,38.272-85.333,85.333s38.272,85.333,85.333,85.333s85.333-38.272,85.333-85.333
			S295.706,49.283,248.644,49.283z M248.644,198.616c-35.285,0-64-28.715-64-64s28.715-64,64-64s64,28.715,64,64
			S283.93,198.616,248.644,198.616z"/>
	</g>
</g>
<g>
	<g>
		<path d="M380.378,135.277c-1.259-0.448-30.784-11.328-57.067-11.328c-5.888,0-10.667,4.779-10.667,10.667
			s4.779,10.667,10.667,10.667c22.4,0,49.344,9.899,49.621,10.005c1.216,0.448,2.475,0.661,3.712,0.661
			c4.331,0,8.405-2.645,10.005-6.955C388.698,143.469,385.882,137.325,380.378,135.277z"/>
	</g>
</g>
<g>
	<g>
		<path d="M173.978,123.971c-25.579,0-55.701,10.837-56.981,11.307c-5.547,2.005-8.384,8.128-6.379,13.653
			c1.579,4.331,5.675,7.019,10.027,7.019c1.216,0,2.432-0.192,3.648-0.619c0.277-0.107,27.819-10.027,49.685-10.027
			c5.888,0,10.667-4.779,10.667-10.667S179.866,123.971,173.978,123.971z"/>
	</g>
</g>
<g>
	<g>
		<path d="M310.276,245.272c-3.669-4.565-10.368-5.333-14.997-1.664c-6.592,5.291-27.84,19.008-46.656,19.008
			c-22.485,0-46.421-18.816-46.677-19.008c-4.608-3.648-11.307-2.859-14.976,1.707c-3.669,4.608-2.923,11.307,1.664,14.976
			c1.216,0.96,29.952,23.659,60.011,23.659s58.795-22.699,59.968-23.68C313.22,256.579,313.946,249.88,310.276,245.272z"/>
	</g>
</g>
<g>
	<g>
		<path d="M156.719,444.739c-5.44-2.219-11.691,0.363-13.909,5.803c-2.752,6.656-8.149,14.123-9.621,14.955
			c-3.2-1.579-9.216-12.907-12.672-23.637c-4.16-49.323-2.432-108.267,7.68-118.379c4.16-4.16,4.16-10.923,0-15.083
			c-4.16-4.16-10.923-4.16-15.083,0C91.29,330.2,97.071,418.349,99.354,444.845c0.064,0.747,0.213,1.493,0.427,2.197
			c3.413,11.243,13.227,37.611,30.357,39.509c0.768,0.085,1.536,0.128,2.261,0.128c17.643,0,28.117-23.168,30.101-28.011
			C164.762,453.208,162.159,446.979,156.719,444.739z"/>
	</g>
</g>
<g>
	<g>
		<path d="M151.834,450.52c-2.667-6.4-12.224-17.237-31.189-17.237c-5.888,0-10.667,4.779-10.667,10.667s4.779,10.667,10.667,10.667
			c8.661,0,11.264,3.819,11.648,4.48c1.792,3.883,5.653,6.187,9.685,6.187c1.365,0,2.752-0.256,4.096-0.832
			C151.514,462.189,154.074,455.96,151.834,450.52z"/>
	</g>
</g>
<g>
	<g>
		<path d="M384.196,308.397c-4.16-4.16-10.923-4.16-15.083,0c-4.16,4.16-4.16,10.923,0,15.083
			c10.091,10.091,11.819,69.056,7.68,118.4c-3.435,10.731-9.408,22.016-11.605,23.467c-2.517-0.661-7.893-8.149-10.688-14.827
			c-2.261-5.44-8.533-7.979-13.931-5.76c-5.44,2.261-8.021,8.469-5.781,13.909c1.984,4.843,12.437,28.011,30.101,28.011
			c0.725,0,1.515-0.043,2.283-0.128c17.131-1.92,26.944-28.267,30.357-39.509c0.213-0.725,0.363-1.451,0.427-2.197
			C400.239,418.349,405.999,330.2,384.196,308.397z"/>
	</g>
</g>
<g>
	<g>
		<path d="M376.644,433.283c-18.965,0-28.523,10.837-31.189,17.237c-2.24,5.44,0.213,11.904,5.675,14.165
			c1.365,0.597,2.816,0.875,4.224,0.875c4.075,0,7.915-2.347,9.6-6.421c0.256-0.448,2.731-4.523,11.691-4.523
			c5.888,0,10.667-4.779,10.667-10.667C387.311,438.061,382.532,433.283,376.644,433.283z"/>
	</g>
</g>
<g>
	<g>
		<path d="M376.644,369.283h-27.051c0.469-3.541,1.621-8.448,2.411-11.797c1.173-4.992,2.368-10.112,2.944-14.891l5.312-4.352
			c30.485-24.981,37.717-30.912,37.717-54.293c0-14.272-8.576-23.509-21.867-23.509c-7.019,0-13.227,2.56-14.4,3.072
			c-0.875,0.384-1.707,0.896-2.453,1.493c-0.491,0.405-50.432,40.277-110.613,40.277s-110.101-39.872-110.613-40.277
			c-0.747-0.597-1.579-1.109-2.453-1.493c-1.173-0.512-7.381-3.072-14.4-3.072c-13.291,0-21.867,9.237-21.867,23.509
			c0,23.381,7.232,29.312,37.717,54.293l5.312,4.352c0.555,4.779,1.771,9.899,2.944,14.891c0.789,3.349,1.941,8.256,2.411,11.797
			h-27.051c-3.285,0-6.4,1.515-8.427,4.096c-2.027,2.581-2.731,5.952-1.941,9.152c5.717,22.805,27.776,64.192,72.043,71.104
			c-1.835,3.563-4.587,6.635-7.552,9.941c-5.355,5.995-11.456,12.8-11.456,23.04c0,5.888,4.779,10.667,10.667,10.667h64
			c4.885,0,9.173-3.328,10.347-8.085l0.32-1.259l0.32,1.28c1.195,4.757,5.461,8.085,10.347,8.085h64
			c5.888,0,10.667-4.779,10.667-10.667c0-10.24-6.101-17.045-11.477-23.061c-2.965-3.307-5.717-6.357-7.552-9.941
			c44.267-6.891,66.325-48.299,72.043-71.104c0.789-3.179,0.085-6.571-1.941-9.152C383.044,370.797,379.93,369.283,376.644,369.283z
			 M248.644,411.949c-50.005,0-63.723-48.768-64-74.56c-0.043-3.605,1.749-6.997,4.757-8.981c3.051-1.984,6.827-2.325,10.155-0.917
			c0.213,0.107,23.147,9.792,49.109,9.792c25.963,0,48.896-9.707,49.109-9.792c3.285-1.387,7.083-1.067,10.155,0.917
			c3.008,2.005,4.8,5.376,4.757,8.981C312.367,363.181,298.65,411.949,248.644,411.949z"/>
	</g>
</g>
<g>
	<g>
		<path d="M241.946,7.405c-2.752-1.109-68.032-26.496-118.187,23.68c-4.16,4.16-4.16,10.923,0,15.083
			c2.091,2.069,4.821,3.115,7.552,3.115s5.461-1.024,7.552-3.115c40.021-40.064,92.907-19.861,95.168-18.965
			c5.376,2.155,11.627-0.491,13.824-5.973C250.031,15.789,247.407,9.603,241.946,7.405z"/>
	</g>
</g>
<g>
	<g>
		<path d="M373.508,31.085C323.332-19.112,258.074,6.296,255.322,7.405c-5.461,2.176-8.085,8.405-5.909,13.867
			c2.176,5.461,8.363,8.107,13.867,5.909c0.533-0.171,54.805-21.376,95.147,18.987c2.091,2.069,4.821,3.115,7.552,3.115
			c2.731,0,5.461-1.024,7.531-3.115C377.669,42.008,377.669,35.245,373.508,31.085z"/>
	</g>
</g>
<g>
</g>
<g>
</g>
<g>
</g>
<g>
</g>
<g>
</g>
<g>
</g>
<g>
</g>
<g>
</g>
<g>
</g>
<g>
</g>
<g>
</g>
<g>
</g>
<g>
</g>
<g>
</g>
<g>
</g>
</svg>
